<?xml version="1.0" standalone="no"?>
<!DOCTYPE svg PUBLIC "-//W3C//DTD SVG 20010904//EN"
 "http://www.w3.org/TR/2001/REC-SVG-20010904/DTD/svg10.dtd">
<svg version="1.0" xmlns="http://www.w3.org/2000/svg"
 width="1078.000000pt" height="1280.000000pt" viewBox="0 0 1078.000000 1280.000000"
 preserveAspectRatio="xMidYMid meet">

<g transform="translate(0.000000,1280.000000) scale(0.100000,-0.100000)"
fill="#000000" stroke="none">
<path d="M5297 12500 c-7 -18 -94 -302 -212 -690 -137 -450 -273 -893 -280
-912 -5 -13 2 -21 27 -31 44 -18 85 -68 94 -112 20 -109 -79 -204 -186 -175
-122 33 -158 167 -68 253 22 21 38 42 36 46 -3 8 -136 152 -483 521 -44 47
-129 137 -190 200 -60 63 -172 182 -249 263 -76 81 -140 146 -142 144 -2 -2
10 -51 26 -108 17 -57 104 -363 194 -679 305 -1066 328 -1145 336 -1153 10
-11 2171 -10 2181 0 4 4 47 143 94 308 47 165 99 343 115 395 15 52 54 183 85
290 31 107 74 251 95 320 73 237 182 622 177 626 -2 2 -24 -17 -47 -43 -24
-27 -109 -118 -189 -203 -80 -85 -171 -182 -201 -215 -31 -33 -121 -130 -200
-215 -126 -136 -322 -348 -398 -432 l-25 -27 31 -29 c83 -77 67 -208 -31 -252
-54 -25 -81 -25 -131 0 -55 27 -79 63 -84 126 -5 66 22 115 80 145 28 14 38
25 34 37 -2 9 -32 107 -65 217 -53 175 -305 1016 -389 1300 -17 55 -32 93 -35
85z"/>
<path d="M9020 10929 c-30 -76 -95 -206 -152 -307 -209 -369 -454 -609 -701
-687 -108 -34 -203 -33 -390 5 -217 43 -341 54 -577 47 -532 -15 -956 -162
-1286 -447 -252 -219 -406 -497 -471 -850 -26 -143 -24 -421 4 -562 51 -252
148 -434 326 -613 147 -148 291 -250 492 -349 75 -37 421 -186 431 -186 3 0
26 -10 52 -21 26 -12 94 -41 152 -64 476 -194 691 -315 817 -461 129 -149 176
-265 176 -439 1 -189 -55 -330 -182 -456 -225 -226 -617 -283 -1016 -148 -323
109 -586 315 -789 619 -127 189 -214 362 -288 572 l-33 93 -3 -802 c-1 -442
-1 -1164 0 -1605 3 -688 5 -794 16 -743 25 113 104 350 151 450 101 214 204
339 332 402 114 57 203 61 404 19 134 -27 251 -40 367 -41 65 0 118 -4 118 -8
0 -5 -9 -22 -20 -38 -39 -54 -119 -234 -149 -336 -82 -279 -81 -614 3 -905 23
-78 107 -282 124 -300 4 -4 7 59 8 140 3 449 175 807 570 1182 96 91 208 184
424 350 220 169 348 280 475 411 228 236 359 441 446 699 90 271 103 624 33
899 -118 461 -384 751 -951 1035 -129 64 -345 157 -680 292 -397 160 -604 290
-713 450 -110 159 -119 376 -24 574 41 86 145 195 237 249 135 79 314 121 517
121 399 0 731 -168 978 -495 107 -142 222 -415 275 -653 l23 -103 52 313 c28
172 72 439 97 593 25 154 58 359 75 455 16 96 41 245 55 330 13 85 53 333 89
550 130 790 139 851 106 769z"/>
<path d="M2840 10149 c-212 -22 -520 -93 -684 -159 -350 -139 -697 -408 -913
-709 -76 -106 -190 -331 -237 -469 -45 -131 -100 -356 -121 -492 -25 -169 -30
-468 -11 -650 63 -585 293 -1147 682 -1665 93 -125 257 -306 429 -475 l117
-115 68 74 c69 74 199 249 265 357 20 33 41 67 48 77 8 11 9 21 2 30 -6 8 -65
82 -132 166 -397 494 -634 991 -699 1466 -23 169 -16 443 15 575 104 447 370
783 788 998 343 176 759 213 1204 108 286 -67 547 -197 726 -361 l63 -57 88
75 c48 41 152 141 230 222 129 133 141 149 131 168 -6 12 -73 83 -148 158
-461 460 -1034 694 -1686 688 -77 -1 -178 -6 -225 -10z"/>
<path d="M7275 10149 c-100 -10 -342 -54 -377 -70 -19 -8 -15 -8 17 -4 124 16
358 26 480 21 161 -7 223 -16 434 -58 137 -28 160 -30 225 -21 89 13 158 40
135 53 -26 15 -334 68 -459 79 -132 12 -324 12 -455 0z"/>
<path d="M5430 9737 c-396 -511 -888 -996 -1285 -1269 -210 -144 -416 -227
-832 -332 -445 -113 -727 -247 -907 -430 -159 -161 -244 -342 -262 -552 -7
-87 3 -274 15 -274 4 0 18 26 31 58 65 162 204 334 349 431 163 111 325 163
506 165 114 1 123 0 180 -29 71 -36 101 -76 110 -148 12 -100 -13 -155 -345
-757 -57 -102 -130 -234 -163 -295 -86 -157 -246 -429 -323 -548 -330 -509
-705 -812 -1141 -923 -53 -13 -98 -26 -100 -27 -2 -2 39 -17 90 -34 229 -76
404 -181 571 -343 167 -162 258 -309 435 -705 161 -359 271 -559 406 -740 79
-105 252 -284 323 -334 l34 -24 -26 52 c-82 160 -163 404 -205 616 -39 200
-46 283 -45 570 0 307 11 418 65 688 87 437 200 760 404 1162 135 266 381 722
401 744 30 33 324 -153 475 -302 94 -92 192 -226 230 -315 87 -202 79 -426
-19 -578 -70 -107 -205 -208 -330 -245 -50 -15 -46 -21 28 -44 106 -33 293
-133 401 -214 163 -123 325 -307 438 -497 81 -137 182 -391 231 -579 18 -68
18 -14 19 2265 1 2531 1 2539 56 2918 41 283 121 599 211 834 19 50 33 95 32
98 -2 4 -28 -24 -58 -63z m-930 -2454 l0 -618 -27 35 c-96 124 -213 222 -368
308 -38 21 -69 43 -68 48 1 5 42 83 91 174 49 91 135 251 192 355 144 268 170
315 175 315 3 0 5 -278 5 -617z"/>
<path d="M8945 9668 c-2 -7 -20 -112 -39 -233 -19 -121 -59 -363 -87 -537
l-53 -316 41 -89 c91 -197 129 -336 143 -531 22 -292 -26 -579 -156 -925 l-26
-67 40 -63 c93 -147 156 -305 191 -482 23 -115 41 -269 41 -350 0 -30 3 -55 8
-55 11 1 122 163 207 305 204 339 347 702 420 1070 48 240 59 369 52 624 -14
565 -186 1055 -496 1408 -77 88 -256 253 -273 253 -5 0 -11 -6 -13 -12z"/>
<path d="M3207 5213 c-26 -45 -167 -540 -167 -588 0 -14 65 -81 191 -200 312
-293 766 -750 895 -900 262 -307 402 -520 559 -849 98 -207 94 -198 173 -411
117 -316 212 -640 282 -965 22 -102 108 -630 135 -825 9 -66 17 -124 19 -130
1 -5 13 63 25 150 124 872 237 1330 478 1930 184 460 386 783 744 1191 l98
110 16 92 c20 115 56 241 99 346 l34 81 -132 17 c-72 9 -142 17 -156 17 -20 0
-45 -25 -125 -121 -143 -174 -204 -254 -315 -413 -345 -493 -562 -963 -748
-1615 l-18 -65 -24 94 c-35 142 -149 475 -225 656 -223 535 -516 987 -1005
1549 -257 296 -821 870 -833 849z"/>
</g>
</svg>
